<svg xmlns="http://www.w3.org/2000/svg" viewBox="0 0 48 48" width="48" height="48">
  <path fill="#EA4335" d="M24 9.5c3.15 0 5.89 1.09 8.1 2.86l6.05-6.05C34.7 2.32 29.72 0 24 0 14.95 0 7.41 5.82 3.88 13.94l7.07 5.5C12.56 13.3 17.82 9.5 24 9.5z"/>
  <path fill="#4285F4" d="M46.12 24.5c0-1.5-.13-2.95-.38-4.36H24v8.27h12.5c-.54 3.2-2.23 5.9-4.77 7.73l7.2 5.6c4.2-3.9 6.62-9.63 6.62-17.24z"/>
  <path fill="#FBBC05" d="M10.95 28.56c-.5-1.5-.8-3.1-.8-4.76 0-1.66.3-3.26.8-4.76L3.88 13.94C2.6 16.57 2 19.35 2 22.25c0 2.9.6 5.68 1.88 8.31l7.07-5.5z"/>
  <path fill="#34A853" d="M24 44c5.72 0 10.7-1.9 14.33-5.17l-7.2-5.6c-2 1.36-4.53 2.16-7.13 2.16-6.18 0-11.44-3.8-13.05-9.24l-7.07 5.5C7.41 42.18 14.95 48 24 48z"/>
  <path fill="none" d="M0 0h48v48H0z"/>
</svg>